<svg fill="#000000" xmlns="http://www.w3.org/2000/svg" xmlns:xlink="http://www.w3.org/1999/xlink" version="1.1" x="0px" y="0px" viewBox="0 0 64 64" enable-background="new 0 0 64 64" xml:space="preserve"><g><g><path d="M56,13H8c-0.552,0-1,0.448-1,1v36c0,0.553,0.448,1,1,1h48c0.553,0,1-0.447,1-1V14C57,13.448,56.553,13,56,13z M55,49H23    v-1c0-1.654,1.346-3,3-3h12c2.757,0,5-2.243,5-5v-3.586l2.293,2.293C45.488,38.902,45.744,39,46,39s0.512-0.098,0.707-0.293    c0.391-0.391,0.391-1.023,0-1.414l-4-4c-0.391-0.391-1.023-0.391-1.414,0l-4,4c-0.391,0.391-0.391,1.023,0,1.414    s1.023,0.391,1.414,0L41,36.414V40c0,1.654-1.346,3-3,3H26c-2.757,0-5,2.243-5,5v1H9V15h46V49z"/><path d="M42,29c2.757,0,5-2.243,5-5s-2.243-5-5-5s-5,2.243-5,5S39.243,29,42,29z M42,21c1.654,0,3,1.346,3,3s-1.346,3-3,3    s-3-1.346-3-3S40.346,21,42,21z"/><path d="M17.293,36.707C17.488,36.902,17.744,37,18,37s0.512-0.098,0.707-0.293L22,33.414l3.293,3.293    C25.488,36.902,25.744,37,26,37s0.512-0.098,0.707-0.293c0.391-0.391,0.391-1.023,0-1.414L23.414,32l3.293-3.293    c0.391-0.391,0.391-1.023,0-1.414s-1.023-0.391-1.414,0L22,30.586l-3.293-3.293c-0.391-0.391-1.023-0.391-1.414,0    s-0.391,1.023,0,1.414L20.586,32l-3.293,3.293C16.902,35.684,16.902,36.316,17.293,36.707z"/></g></g></svg>