<?xml version="1.0" encoding="UTF-8" standalone="no"?>
<svg width="140px" height="149px" viewBox="0 0 140 149" version="1.1" xmlns="http://www.w3.org/2000/svg" xmlns:xlink="http://www.w3.org/1999/xlink">
    <!-- Generator: Sketch 42 (36781) - http://www.bohemiancoding.com/sketch -->
    <title>Page 1</title>
    <desc>Created with Sketch.</desc>
    <defs>
        <polygon id="path-1" points="0 16.8903173 0 0.361646946 17.9817101 0.361646946 17.9817101 16.8903173 4.73033173e-16 16.8903173"></polygon>
    </defs>
    <g id="Page-1" stroke="none" stroke-width="1" fill="none" fill-rule="evenodd">
        <g>
            <path d="M62.4714667,21.4995261 C58.2812641,22.2109848 53.6955719,19.2617758 52.6527163,15.1317777 C51.5894234,10.9249398 54.2429606,6.32229431 58.2425989,4.84907184 C58.6408505,4.7025788 58.9435437,4.47537639 59.1782967,4.20781929 C59.4682857,4.35375953 59.8101965,4.44110255 60.2172857,4.42838806 C64.740009,4.28963427 69.2063915,7.60424662 69.5676349,12.3229809 C69.8863466,16.492781 66.6086427,20.7969123 62.4714667,21.4995261 M60.2172857,0.00595663742 C59.5533491,0.0264103827 59.0507015,0.288992248 58.6966388,0.670979762 C58.2619315,0.420006779 57.7106763,0.348142268 57.0677293,0.584742349 C50.8166718,2.88717071 46.6706581,9.64740993 48.3912593,16.3070388 C49.9914461,22.5017597 56.6335744,26.7915181 62.9150117,25.8771804 C69.2809601,24.9506811 74.2947313,18.7493266 73.9865145,12.3229809 C73.6468131,5.25206591 67.1295181,-0.205767267 60.2172857,0.00595663742" id="Fill-1" fill="#000000"></path>
            <path d="M127.354777,99.5005496 C113.511598,97.4264197 100.659935,90.62682 91.251321,80.013348 C82.5377904,70.1845567 77.4115495,57.4616035 76.3507521,44.3300832 C80.0720611,46.7032495 83.794506,49.0769953 87.5169508,51.4507412 C90.0036916,53.0363292 92.2865639,49.0265764 89.8100449,47.4473632 C85.25509,44.5433494 80.7007029,41.6387561 76.1463158,38.7347423 C76.1474515,38.5805879 76.1457479,38.4264336 76.1480194,38.2722792 C76.1832279,35.9495318 73.0479696,35.1480448 71.9150516,37.1022125 C69.0546467,42.0345736 66.1936738,46.9675142 63.3332689,51.8998752 C61.8403158,54.4741377 65.7603824,56.8049985 67.255607,54.2400085 C68.8246558,51.5486814 70.3937046,48.8579338 71.9627534,46.1666068 C75.0253232,75.2600611 97.187357,99.632682 126.146899,103.971027 C129.006736,104.399878 130.240736,99.9328774 127.354777,99.5005496" id="Fill-7" fill="#000000"></path>
            <path d="M42.7276374,25.4605623 C26.0583384,38.4472461 15.5162906,58.2836103 14.007183,79.7437502 C13.794697,82.7588305 18.365431,82.7453284 18.5767746,79.7437502 C19.9579337,60.101112 29.7494261,41.4235813 45.0341387,29.5158924 C47.3480657,27.7130668 45.0735515,23.6330807 42.7276374,25.4605623" id="Fill-9" fill="#000000"></path>
            <path d="M23.5755,70.571661 C20.5003907,72.3123812 17.4741019,74.2396465 14.3036494,75.8136902 C10.9275769,77.4914928 7.47454052,75.3749228 9.0057772,71.6522983 C10.0924613,69.0092074 5.65095595,67.862341 4.57518464,70.4783884 C2.77744615,74.8489537 5.34712091,79.7432804 10.148174,80.822262 C12.4444546,81.3382967 14.6109305,80.6671756 16.6234787,79.6262758 C19.7732544,77.9975931 22.8127534,76.1288301 25.8941806,74.3842466 C28.440881,72.9426609 26.1313902,69.1245563 23.5755,70.571661" id="Fill-11" fill="#000000"></path>
            <path d="M23.2040943,108.599889 C20.1626508,110.483793 15.7507765,109.47054 13.6762047,106.611262 C11.4546819,103.550335 12.3953919,98.860072 15.3761624,96.6486295 C15.5654176,96.5088129 15.7212749,96.3528421 15.8504138,96.1868447 C16.0046012,96.161778 16.1649115,96.118329 16.3319015,96.0537125 C19.643312,94.770296 23.6983845,95.6559871 25.6404775,98.845589 C27.5792308,102.030178 26.3362689,106.660281 23.2040943,108.599889 M30.1152513,97.873557 C27.7000201,92.260838 20.7766171,89.5753558 15.1479428,91.7567182 C14.7699889,91.9032193 14.4771998,92.1215784 14.2473104,92.377816 C13.8905085,92.3900709 13.5114413,92.5176327 13.1290344,92.8011652 C8.33196995,96.3589696 6.35091259,103.191603 9.58383789,108.514105 C12.615262,113.504055 19.6466518,115.487669 24.8289064,112.791603 C30.0345395,110.082725 32.4325151,103.260675 30.1152513,97.873557" id="Fill-13" fill="#000000"></path>
            <path d="M52.7120723,95.078071 C52.0522914,93.9417531 50.7539767,93.7603479 49.6519188,94.2696346 C47.7978225,95.1259575 45.9442854,95.9822804 44.0901891,96.8386033 C42.9920452,97.3461999 42.7214232,98.9456082 43.2878284,99.921929 C43.9470502,101.058247 45.2453649,101.239652 46.3479819,100.730365 C48.2020782,99.8740425 50.0556153,99.0177196 51.9091525,98.1613967 C53.0072963,97.6538001 53.2790366,96.0543918 52.7120723,95.078071" id="Fill-15" fill="#000000"></path>
            <path d="M67.9146467,88.8386178 C67.5972421,87.6328614 66.2111828,86.6559211 65.006582,87.1160205 C63.2493307,87.7858167 61.4932616,88.4562296 59.7366014,89.1260258 C58.5379113,89.5836582 57.7275542,90.801133 58.0851516,92.1610782 C58.4025562,93.3662179 59.7886155,94.343775 60.9938074,93.8842923 C62.7504676,93.2138794 64.5065368,92.5434665 66.263197,91.8730535 C67.4618871,91.4160379 68.2728352,90.1985631 67.9146467,88.8386178" id="Fill-17" fill="#000000"></path>
            <path d="M96.3517134,68.5781173 C95.4150094,67.7197559 94.1586586,67.9000882 93.206945,68.5781173 C91.3541056,69.8985164 89.5012661,71.2194249 87.6478707,72.539824 C86.6994926,73.2163248 86.8729358,74.7119621 87.6478707,75.4220842 C88.5845747,76.2799361 89.8414814,76.1001132 90.7926391,75.4220842 C92.6454785,74.1011756 94.4988739,72.7802671 96.3517134,71.459868 C97.3006474,70.7833672 97.1272043,69.2882393 96.3517134,68.5781173" id="Fill-19" fill="#000000"></path>
            <path d="M116.952135,55.3141025 C115.631671,56.1453727 114.311716,56.9772042 112.991762,57.8084744 C110.715451,59.2425699 112.765149,63.1233278 115.047571,61.6858645 L119.008454,59.1914926 C121.284765,57.7579584 119.234048,53.8766393 116.952135,55.3141025" id="Fill-21" fill="#000000"></path>
            <path d="M136.952922,41.313376 C135.632248,42.1439111 134.312591,42.9744463 132.991916,43.8055434 C130.71547,45.2373455 132.764933,49.1225418 135.046978,47.6868061 C136.367143,46.856271 137.687309,46.0257358 139.007983,45.1952007 C141.284429,43.7628366 139.235475,39.8770784 136.952922,41.313376" id="Fill-23" fill="#000000"></path>
            <path d="M78.6421708,80.3202712 C77.2636669,79.6561425 75.764433,80.0590969 74.9090922,81.2126164 C74.3988888,81.9003751 73.8893676,82.5881339 73.3791643,83.2765144 C72.5777085,84.3572782 73.1138313,86.0804061 74.3586455,86.6798631 C75.7371494,87.3439918 77.2357012,86.9404155 78.0910421,85.7875179 C78.6005633,85.0997591 79.1107666,84.4113786 79.62097,83.7236198 C80.4217436,82.6422342 79.8869851,80.9197281 78.6421708,80.3202712" id="Fill-25" fill="#000000"></path>
            <path d="M54.3557622,142.037024 C49.8465544,137.257279 45.3373466,132.477534 40.8281387,127.697789 C38.8096617,125.55813 35.6277179,128.825626 37.6439434,130.962976 C42.1531512,135.742721 46.6623591,140.522466 51.1715669,145.302211 C53.1906068,147.44187 56.3725506,144.174374 54.3557622,142.037024" id="Fill-27" fill="#000000"></path>
            <path d="M51.2903423,126.767841 C46.3723437,132.862508 41.454906,138.956614 36.5369074,145.051282 C34.7364083,147.282451 37.8920493,150.484133 39.7099364,148.232159 C44.6273741,142.137492 49.5459336,136.043386 54.4633713,129.948718 C56.2633094,127.717549 53.1076684,124.515867 51.2903423,126.767841" id="Fill-29" fill="#000000"></path>
            <path d="M102.248238,136.101388 C97.480816,131.930017 92.7128289,127.758061 87.9459711,123.58669 C85.7372837,121.654101 82.5264438,124.951387 84.7520691,126.898612 C89.5194915,131.069983 94.2863493,135.241939 99.0543364,139.41331 C101.262459,141.345899 104.473299,138.048613 102.248238,136.101388" id="Fill-31" fill="#000000"></path>
            <path d="M96.6584454,120.007464 C92.2471756,126.223463 87.8353387,132.439461 83.4235018,138.655459 C81.7090163,141.072406 85.6427482,143.385753 87.3413536,140.992536 C91.7531905,134.776537 96.1644603,128.560539 100.576297,122.344541 C102.29135,119.927594 98.3570508,117.614247 96.6584454,120.007464" id="Fill-33" fill="#000000"></path>
            <g id="Group-37" transform="translate(0.000000, 16.000000)">
                <mask id="mask-2" fill="white">
                    <use xlink:href="#path-1"></use>
                </mask>
                <g id="Clip-36"></g>
                <path d="M17.0337375,12.2172321 C12.42855,8.42501786 7.823925,4.63280357 3.2187375,0.840589286 C0.91755,-1.05491071 -1.326825,3.16169643 0.9473625,5.03473214 C5.55255,8.82694643 10.157175,12.6191607 14.7623625,16.411375 C17.064675,18.306875 19.3084875,14.0902679 17.0337375,12.2172321" id="Fill-35" fill="#000000" mask="url(#mask-2)"></path>
            </g>
            <path d="M10.6609789,13.4998149 C8.16570393,19.7645574 5.66988913,26.0287324 3.1746142,32.2929073 C2.10189433,34.9850948 6.27940133,36.1600533 7.33916435,33.5002197 C9.83497915,27.2360448 12.3302541,20.9713023 14.825529,14.7065597 C15.897709,12.0149398 11.7207419,10.8399813 10.6609789,13.4998149" id="Fill-38" fill="#000000"></path>
        </g>
    </g>
</svg>