<svg fill="rgba(0, 0, 0, .5)" xmlns="http://www.w3.org/2000/svg" xmlns:xlink="http://www.w3.org/1999/xlink" version="1.1" x="0px" y="0px" viewBox="0 0 100 100" enable-background="new 0 0 100 100" xml:space="preserve"><path d="M55.3,49.3c17.7,0,32-14.4,32-32v-3.7l4.9,4.9c1.3,1.3,3.7,1.3,5,0c0.7-0.7,1-1.6,1-2.5c0-0.9-0.4-1.8-1-2.5l-11-11  c-1.3-1.3-3.5-1.3-4.9-0.1l-11.8,11c-0.7,0.6-1.1,1.5-1.1,2.5c0,0.9,0.3,1.8,0.9,2.5c1.3,1.4,3.6,1.5,5,0.2l6-5.5v4.3  c0,13.8-11.2,25-25,25H43.4C27,42.3,13,55,11.5,71.3l0,0.4l-0.4,0.1c-5.7,1.7-9.6,6.9-9.6,12.8c0,7.4,6,13.4,13.4,13.4  c7.4,0,13.4-6,13.4-13.4c0-5.7-3.7-10.8-9.2-12.7l-0.5-0.2l0.1-0.5c1.5-12.5,12.1-22,24.7-22H55.3z M21.3,84.7  c0,3.5-2.9,6.4-6.4,6.4c-3.5,0-6.4-2.9-6.4-6.4c0-3.5,2.9-6.4,6.4-6.4C18.4,78.3,21.3,81.2,21.3,84.7z"/><path d="M76.6,85.7l-5.7-5.4l5.7-5.4c0.7-0.7,1.1-1.5,1.1-2.5s-0.3-1.8-1-2.5c-1.3-1.4-3.6-1.4-5-0.1l-5.9,5.6l-5.9-5.6  c-1.4-1.3-3.7-1.3-5,0.1c-0.7,0.7-1,1.6-1,2.5c0,0.9,0.4,1.8,1.1,2.5l5.7,5.4L55,85.7c-1.4,1.3-1.5,3.6-0.1,5c1.3,1.4,3.6,1.4,5,0.1  l5.9-5.6l5.9,5.6c1.3,1.3,3.7,1.2,5-0.1C78,89.3,78,87.1,76.6,85.7z"/><path d="M41.9,23.4L36.3,18l5.7-5.4c1.4-1.3,1.5-3.6,0.1-5c-1.3-1.4-3.6-1.4-5-0.1l-5.9,5.6l-5.9-5.6c-1.4-1.3-3.7-1.3-5,0.1  c-1.3,1.4-1.3,3.6,0.1,5L26,18l-5.7,5.4c-0.7,0.7-1.1,1.5-1.1,2.5c0,0.9,0.3,1.8,1,2.5c1.3,1.4,3.6,1.4,5,0.1l5.9-5.6l5.9,5.6  c1.3,1.3,3.7,1.2,5-0.1c0.7-0.7,1-1.6,1-2.5C43,24.9,42.6,24.1,41.9,23.4z"/></svg>
